<?xml version="1.0" encoding="UTF-8"?>
<svg id="Ebene_1" xmlns="http://www.w3.org/2000/svg" version="1.1" viewBox="0 0 54 72">
  <!-- Generator: Adobe Illustrator 29.4.0, SVG Export Plug-In . SVG Version: 2.1.0 Build 152)  -->
  <defs>
    <style>
      .st0 {
        fill: #71b57c;
      }
    </style>
  </defs>
  <path class="st0" d="M30.25,0c12.09.42,23.32,11.6,23.75,23.75v6c-.33,5.07-2.5,9.81-4.83,14.26-5.28,10.07-13.12,18.87-20.65,27.31-.15.17-.36.28-.57.39s-.46.2-.7.28h-.5l-.69-.27c-7.94-8.54-16.15-17.76-21.52-28.23C2.31,39.12.26,34.47,0,29.5c.12-1.78-.16-3.74,0-5.5C.11,11.89,11.88.09,24,0h6.25ZM25.7,9.08c-12.32.93-19.93,13.62-15.16,25.01,6.16,14.73,27.75,14.26,33.22-.71,4.5-12.31-4.91-25.3-18.06-24.3Z"/>
</svg>